<?xml version="1.0" encoding="UTF-8"?>
<svg version="1.1" xmlns="http://www.w3.org/2000/svg" width="1536" height="1024">
<path d="M0 0 C506.88 0 1013.76 0 1536 0 C1536 337.92 1536 675.84 1536 1024 C1029.12 1024 522.24 1024 0 1024 C0 686.08 0 348.16 0 0 Z " fill="#010101" transform="translate(0,0)"/>
<path d="M0 0 C4.73483902 0.10046609 9.46986058 0.10945334 14.20560098 0.12840652 C23.15990211 0.17801141 32.1110536 0.30912173 41.06397158 0.46999836 C51.26189303 0.64924283 61.45997019 0.7369075 71.65907633 0.81712532 C92.62671163 0.98407905 113.59151742 1.2652463 134.55672097 1.62230301 C132.64495716 5.58812148 130.24787564 9.13659315 127.74422097 12.74730301 C127.2613865 13.44669998 126.77855203 14.14609695 126.28108621 14.86668777 C122.0874007 20.91381756 117.78866547 26.88256735 113.46565652 32.83763504 C109.78879353 37.90464404 106.15663523 43.00037711 102.55672097 48.12230301 C98.432944 53.98727561 94.26346497 59.81655906 90.05672097 65.62230301 C83.81628845 74.23756937 77.67470741 82.91982065 71.55672097 91.62230301 C65.48182155 100.26349657 59.38329719 108.883904 53.18172097 117.43480301 C48.57549286 123.78657822 44.04326431 130.18546649 39.55672097 136.62230301 C35.07017647 143.0591412 30.5378702 149.45796947 25.93172097 155.80980301 C19.73107805 164.36144921 13.62393991 172.97558546 7.55672097 181.62230301 C6.69530496 182.84965164 6.69530496 182.84965164 5.8164866 184.1017952 C-1.3042521 194.25173462 -8.40327934 204.41616589 -15.44327903 214.62230301 C-13.61765955 218.64158483 -11.13141291 222.22494209 -8.68156028 225.88011551 C-7.97823821 226.93475494 -7.97823821 226.93475494 -7.26070762 228.01070023 C-6.26740062 229.49915199 -5.27297364 230.98685687 -4.27750754 232.47386551 C-2.77611376 234.71692325 -1.27833968 236.96236196 0.21883035 239.20824051 C4.75382529 246.00227422 9.31388289 252.77191824 14.02376199 259.44652176 C16.61509715 263.12449261 19.14824392 266.84183831 21.68172097 270.55980301 C22.2915281 271.45457352 22.90133523 272.34934402 23.52962136 273.27122879 C39.18667915 296.28317054 54.75531926 319.35777624 70.16170144 342.53831863 C76.35856412 351.85113677 82.6612938 361.09113955 88.95857644 370.33620071 C93.62472077 377.18823393 98.2815003 384.04660352 102.93169045 390.90947342 C103.91028515 392.35308625 104.88952361 393.79626297 105.86949563 395.23894119 C111.23737243 403.14205319 116.54589785 411.08024921 121.75203347 419.09105301 C122.23372994 419.8297261 122.71542642 420.5683992 123.21171975 421.32945633 C126.55672097 426.50220669 126.55672097 426.50220669 126.55672097 427.62230301 C106.07092898 428.65699971 85.59051748 429.42914016 65.08389401 429.90203857 C55.55729933 430.12764089 46.04720844 430.4351503 36.53108621 430.94163895 C-26.71323241 434.24067221 -26.71323241 434.24067221 -40.5864675 423.54127884 C-50.60695584 414.05126542 -56.22763176 401.57329255 -61.22919822 388.92692947 C-64.01330337 381.96914742 -67.93402399 376.31368367 -72.37296653 370.30589676 C-73.57627789 368.54506037 -74.77201455 366.7790157 -75.95890403 365.00706863 C-77.07848509 363.3578371 -78.19827718 361.70874881 -79.31827903 360.05980301 C-92.65803433 340.3957877 -92.65803433 340.3957877 -97.85343528 332.12718582 C-100.95978761 327.23296363 -104.21578096 322.43708315 -107.44327903 317.62230301 C-109.00458644 315.28339961 -110.56372428 312.94305225 -112.12296653 310.60277176 C-112.96464133 309.3401307 -113.80635788 308.07751747 -114.64811301 306.81492996 C-115.08195304 306.16416489 -115.51579307 305.51339981 -115.96277976 304.84291458 C-117.36509051 302.73959053 -118.76757407 300.6363818 -120.17008567 298.53319168 C-125.49529488 290.54710827 -130.81726239 282.55888573 -136.13468528 274.56761551 C-141.0878733 267.12391212 -146.04859798 259.68528909 -151.0172689 252.25191116 C-153.74942624 248.16348855 -156.47399229 244.07026986 -159.18728232 239.96930313 C-160.91062169 237.36923948 -162.64650899 234.77758366 -164.38077903 232.18480301 C-164.97108909 231.28544022 -165.56139915 230.38607742 -166.16959739 229.45946121 C-166.70206077 228.66886307 -167.23452415 227.87826492 -167.78312278 227.06370926 C-168.2303469 226.39025467 -168.67757102 225.71680008 -169.13834739 225.02293777 C-169.56897483 224.5607283 -169.99960227 224.09851883 -170.44327903 223.62230301 C-171.43327903 223.62230301 -172.42327903 223.62230301 -173.44327903 223.62230301 C-174.75340961 224.95879737 -174.75340961 224.95879737 -175.88468528 226.84495926 C-176.61473777 227.96185135 -176.61473777 227.96185135 -177.35953879 229.10130692 C-177.90279807 229.95386063 -178.44605735 230.80641434 -179.00577903 231.68480301 C-180.27569375 233.63201699 -181.54661252 235.57857637 -182.81827903 237.52464676 C-183.17164832 238.06851028 -183.52501761 238.61237381 -183.88909507 239.17271805 C-188.48913718 246.25114637 -193.18111309 253.26839066 -197.86667991 260.29036331 C-199.52078933 262.76980282 -201.17329299 265.25030683 -202.82560325 267.73094559 C-212.76538971 282.64544791 -222.78758293 297.50402775 -232.83610129 312.34544754 C-237.81529648 319.70599322 -242.77182525 327.06467733 -247.49967551 334.59007645 C-250.2211541 338.83587019 -253.02603664 343.02441263 -255.82999778 347.21605301 C-256.71140685 348.53400864 -256.71140685 348.53400864 -257.61062217 349.87858963 C-260.05842653 353.53660157 -262.50781093 357.19354748 -264.95963645 360.84886551 C-271.83970166 371.11028177 -278.6218943 381.41414824 -285.18156028 391.88362503 C-289.44821573 398.67640542 -293.88398543 405.34233896 -298.41129661 411.9636116 C-299.67346871 413.80974361 -300.93072949 415.65915463 -302.18741965 417.50902176 C-308.28154323 426.46056721 -308.28154323 426.46056721 -309.44327903 427.62230301 C-311.44289358 427.71902996 -313.44598095 427.74417331 -315.44793296 427.74255753 C-317.40628577 427.74461952 -317.40628577 427.74461952 -319.40420127 427.74672318 C-320.86457442 427.74318355 -322.32494734 427.73954874 -323.78532004 427.7358284 C-325.3125417 427.73554654 -326.8397635 427.73570424 -328.36698508 427.7362709 C-332.5258959 427.73655892 -336.68477814 427.73066156 -340.84368229 427.72369695 C-345.18522427 427.71746406 -349.52676683 427.71685966 -353.8683126 427.71567154 C-362.09541485 427.71255803 -370.32250388 427.70434438 -378.5496003 427.69432205 C-387.91340967 427.68316152 -397.27721965 427.67765062 -406.64103401 427.67262661 C-425.90845652 427.66216178 -445.17586671 427.64456196 -464.44327903 427.62230301 C-463.32062909 425.85336563 -462.19736234 424.08481969 -461.07383323 422.31644058 C-460.44837985 421.33153987 -459.82292647 420.34663916 -459.17851996 419.33189297 C-457.3901766 416.53938323 -455.54972104 413.79474408 -453.64640403 411.07933426 C-453.00364524 410.15934647 -452.36088645 409.23935867 -451.69865012 408.29149246 C-451.03687766 407.34878494 -450.3751052 406.40607742 -449.69327903 405.43480301 C-448.27364947 403.4038037 -446.85437959 401.37255294 -445.43546653 399.34105301 C-444.75065207 398.36136551 -444.06583762 397.38167801 -443.36027122 396.37230301 C-440.82763738 392.73914108 -438.31988754 389.08936374 -435.81827903 385.43480301 C-431.73132299 379.47041119 -427.59516256 373.54165952 -423.44327903 367.62230301 C-417.39018787 358.99154443 -411.39968102 350.31997848 -405.44327903 341.62230301 C-397.77465518 330.42440172 -390.02677245 319.28462391 -382.23282981 308.17357254 C-366.76804298 286.12622979 -351.32098898 264.06512363 -336.16202903 241.80589676 C-335.59572776 240.97541824 -335.02942649 240.14493973 -334.44596457 239.2892952 C-333.3651573 237.70375733 -332.2857547 236.11726046 -331.20817161 234.52952957 C-330.21147827 233.06756391 -329.20087986 231.6149549 -328.17483115 230.17343998 C-326.39162878 227.6259671 -326.39162878 227.6259671 -324.87046409 224.80409908 C-320.28846094 217.23315768 -320.28846094 217.23315768 -315.43343711 215.6258831 C-311.71617566 215.26704572 -308.14123458 215.26068515 -304.40812278 215.37352371 C-302.99809617 215.37663088 -301.5880518 215.37487631 -300.1780355 215.36865616 C-296.3691999 215.36551285 -292.56421193 215.42994814 -288.75626731 215.50696969 C-284.76997762 215.57596375 -280.78358928 215.58221325 -276.79679465 215.59524918 C-269.25615504 215.62937339 -261.71727987 215.71954539 -254.17741561 215.83009356 C-245.58997733 215.95325458 -237.00245256 216.01357707 -228.41435027 216.06874335 C-210.75632794 216.18357259 -193.09994557 216.37692005 -175.44327903 216.62230301 C-175.77327903 215.63230301 -176.10327903 214.64230301 -176.44327903 213.62230301 C-175.52987266 211.69206619 -175.52987266 211.69206619 -174.05338645 209.48070145 C-173.50498603 208.64843033 -172.95658561 207.81615921 -172.39156699 206.95866776 C-171.78343665 206.05876114 -171.17530631 205.15885452 -170.54874778 204.23167801 C-169.92736426 203.29487198 -169.30598075 202.35806595 -168.66576743 201.39287186 C-166.66372223 198.37948262 -164.64751242 195.37587685 -162.63077903 192.37230301 C-161.3127784 190.39376442 -159.99571021 188.41460435 -158.67960715 186.43480301 C-155.51453599 181.6781998 -152.33850366 176.9290531 -149.15800071 172.18275833 C-146.72543164 168.55039951 -144.30058203 164.91292081 -141.87687278 161.27464676 C-141.09116387 160.09576173 -140.30543893 158.91688738 -139.51969504 157.73802567 C-138.83447776 156.70983719 -138.14926047 155.68164871 -137.44327903 154.62230301 C-136.33654358 152.96212317 -135.22977738 151.30196383 -134.12296653 149.64183426 C-133.64988059 148.93220535 -133.17679465 148.22257645 -132.68937278 147.49144363 C-128.49796653 141.20433426 -128.49796653 141.20433426 -127.01407981 138.97874832 C-125.93402905 137.35850432 -124.85429402 135.73804983 -123.774822 134.1174202 C-120.10543386 128.6099431 -116.42988774 123.1066605 -112.74914145 117.60676956 C-95.95452153 92.57654833 -95.95452153 92.57654833 -79.6366384 67.23509598 C-76.13814686 61.67846856 -72.50043513 56.26240563 -68.72062278 50.89183426 C-65.88343325 46.81854501 -63.12940294 42.69318101 -60.38077903 38.55980301 C-59.86442893 37.78362625 -59.34807883 37.00744949 -58.81608176 36.20775223 C-56.63709748 32.92970817 -54.46133285 29.64954727 -52.28702903 26.36839676 C-51.0604583 24.52100028 -49.80105913 22.6947726 -48.50255942 20.89720535 C-46.86304524 18.28986307 -45.97189094 16.43078151 -44.99764609 13.60350418 C-37.61705489 -4.52955271 -16.29695342 -0.40424456 0 0 Z " fill="#FDFDFD" transform="translate(903.4432790279388,271.3776969909668)"/>
<path d="M0 0 C0.88705543 -0.00384115 1.77411086 -0.00768229 2.68804675 -0.01163983 C4.15125119 -0.01034011 4.15125119 -0.01034011 5.64401531 -0.00901413 C6.67956749 -0.01198525 7.71511967 -0.01495637 8.78205222 -0.01801753 C12.26890017 -0.02672283 15.75571386 -0.02821432 19.24257183 -0.02970505 C21.73571121 -0.0343319 24.22884988 -0.03935638 26.72198772 -0.04475021 C33.50712183 -0.05788846 40.29224247 -0.06435842 47.07738614 -0.06876087 C51.31360356 -0.07152304 55.5498187 -0.07576034 59.78603458 -0.08026505 C71.51361765 -0.09245779 83.24119888 -0.10275715 94.96878815 -0.10614014 C95.71944667 -0.1063597 96.47010519 -0.10657927 97.24351094 -0.10680549 C97.99597068 -0.10702377 98.74843041 -0.10724204 99.52369195 -0.10746694 C101.04847483 -0.1079104 102.57325771 -0.10835697 104.09804058 -0.10880661 C104.85438637 -0.10902804 105.61073215 -0.10924947 106.3899975 -0.10947761 C118.64631502 -0.11342587 130.90257309 -0.13088071 143.15886763 -0.15416613 C155.74055202 -0.17787692 168.32220658 -0.19034186 180.90391368 -0.19150805 C187.96876048 -0.19242496 195.03352982 -0.19818117 202.09835529 -0.21632767 C208.74262631 -0.23333374 215.38677616 -0.23498331 222.03107166 -0.22618866 C224.47158228 -0.22541615 226.91210068 -0.22978899 229.35259151 -0.23964691 C232.68078523 -0.25230357 236.00845261 -0.24652346 239.33664227 -0.23606491 C240.30541972 -0.24412132 241.27419718 -0.25217772 242.27233154 -0.26047826 C247.47613573 -0.22215769 251.22065268 0.13602972 255.68080425 3.13142776 C258.39809047 7.20735709 258.37539794 10.34428418 257.68080425 15.13142776 C256.52502729 18.09978574 254.89112305 20.61937128 253.11830425 23.25642776 C252.6287022 24.02011673 252.13910015 24.78380569 251.63466167 25.57063675 C250.00310156 28.1043089 248.34281675 30.61764565 246.68080425 33.13142776 C245.50995743 34.93118472 244.34072283 36.73199142 243.17299175 38.53377151 C240.66972408 42.38919371 238.15524951 46.23700855 235.63392925 50.08064651 C231.62896784 56.19625038 227.67929658 62.34626752 223.74330425 68.50642776 C223.08346539 69.53904739 222.42362652 70.57166702 221.74379253 71.63557816 C220.40187163 73.7365506 219.06023879 75.83770707 217.71889019 77.93904495 C214.27177649 83.338477 210.8205241 88.73525936 207.36830425 94.13142776 C206.69549419 95.18314163 206.02268414 96.2348555 205.32948589 97.31843948 C201.20518606 103.76135531 197.06173459 110.19134122 192.89784527 116.60872269 C188.83983532 122.86967379 184.82321628 129.15687429 180.80580425 135.44392776 C174.31779871 145.59467745 167.77461286 155.70792781 161.1978941 165.80134964 C158.68690276 169.65794785 156.18277623 173.51897385 153.68080425 177.38142776 C153.24792095 178.04851761 152.81503765 178.71560745 152.36903667 179.40291214 C151.95629498 180.04035355 151.54355328 180.67779495 151.11830425 181.33455276 C150.71611675 181.95265823 150.31392925 182.5707637 149.89955425 183.20759964 C149.04091247 184.56298771 148.20992251 185.93609 147.39955425 187.32088089 C146.97674175 188.03695511 146.55392925 188.75302933 146.11830425 189.49080276 C145.74576519 190.140168 145.37322613 190.78953323 144.989398 191.4585762 C142.82443073 194.22617988 140.51423718 195.02315702 137.09486675 195.46736526 C136.17447613 195.48025589 135.2540855 195.49314651 134.30580425 195.50642776 C133.39056988 195.53478714 132.4753355 195.56314651 131.53236675 195.59236526 C125.36840571 194.59599896 121.85527352 190.51838689 118.30580425 185.69392776 C117.44159206 184.53479679 116.57697915 183.37596452 115.71205425 182.21736526 C115.23639019 181.57380081 114.76072613 180.93023636 114.270648 180.26716995 C111.83649146 176.99720658 109.35403538 173.76454165 106.87709332 170.52693558 C101.39689843 163.36211691 95.95074063 156.17312423 90.55580425 148.94392776 C85.77106026 142.53667262 80.88275924 136.21482195 75.96156597 129.91194534 C72.00407004 124.8413697 68.08015072 119.74683356 64.18080425 114.63142776 C59.71332211 108.77240137 55.21116299 102.94196932 50.68080425 97.13142776 C44.4527743 89.14258902 38.29239654 81.10379785 32.14760113 73.05086136 C29.99887486 70.23906277 27.84014368 67.43508621 25.68080425 64.63142776 C21.83695824 59.63941996 18.00636647 54.6374587 14.18080425 49.63142776 C8.95747549 42.79640506 8.95747549 42.79640506 3.71742535 35.9742012 C2.51163217 34.40527526 1.31295583 32.83088797 0.114398 31.25642776 C-1.60834808 29.04423375 -3.34937831 26.89394833 -5.1590395 24.75642776 C-12.95044629 15.41641838 -12.95044629 15.41641838 -13.25669575 10.13142776 C-12.84338872 6.82497156 -12.15328542 5.91619275 -10.00669575 3.13142776 C-6.57722429 0.57926296 -4.15871729 0.00675682 0 0 Z " fill="#FCFCFC" transform="translate(535.3191957473755,280.8685722351074)"/>
<path d="M0 0 C1.22807373 -0.01268417 2.45614746 -0.02536835 3.72143555 -0.03843689 C5.05778166 -0.03638552 6.39412662 -0.03339755 7.73046875 -0.02954102 C9.10522723 -0.03410357 10.47998344 -0.03940937 11.85473633 -0.04542542 C14.73300455 -0.05435162 17.61099522 -0.05193878 20.48925781 -0.04199219 C24.17496726 -0.03049533 27.85971963 -0.05072583 31.54530334 -0.07990932 C34.38324043 -0.09826731 37.22094788 -0.09797993 40.05892944 -0.0922718 C41.41768742 -0.09211858 42.77646094 -0.09816425 44.13516235 -0.11056328 C46.03536719 -0.12546287 47.93572969 -0.11217147 49.8359375 -0.09765625 C51.45665161 -0.097407 51.45665161 -0.097407 53.11010742 -0.09715271 C56.66845393 0.53801493 57.83321795 1.47359223 59.91796875 4.40405273 C60.41917419 7.02882385 60.41917419 7.02882385 60.41967773 10.04296875 C60.42905869 11.17416641 60.43843964 12.30536407 60.44810486 13.47084045 C60.43687088 14.68758957 60.4256369 15.90433868 60.4140625 17.15795898 C60.41551773 18.41035873 60.41697296 19.66275848 60.41847229 20.95310974 C60.41681212 23.60064581 60.40732283 26.24674538 60.38452148 28.89404297 C60.35610696 32.28606478 60.35888328 35.67718716 60.3716116 39.06927586 C60.38023914 42.30722829 60.36512502 45.54503476 60.3515625 48.78295898 C60.35449814 50.00173233 60.35743378 51.22050568 60.36045837 52.47621155 C60.3477742 53.60425705 60.33509003 54.73230255 60.32202148 55.89453125 C60.3166185 56.88840347 60.31121552 57.8822757 60.3056488 58.90626526 C59.91796875 61.40405273 59.91796875 61.40405273 58.77148438 63.22413635 C56.09407866 64.92852709 54.01861764 64.78538057 50.85766602 64.79223633 C49.609496 64.80169281 48.36132599 64.81114929 47.07533264 64.82089233 C45.71167687 64.81552204 44.34802399 64.80936895 42.984375 64.80249023 C41.58576811 64.80451137 40.18716224 64.80742314 38.78855896 64.81118774 C35.85722826 64.81561075 32.92617185 64.80918214 29.99487305 64.79516602 C26.24089198 64.77808953 22.48755509 64.78790506 18.73359776 64.80588341 C15.84505887 64.81673564 12.95667211 64.81326812 10.06812859 64.80550003 C8.68426372 64.80350116 7.30038497 64.80594633 5.91653633 64.81293869 C3.98024898 64.82057412 2.04391313 64.80686892 0.10766602 64.79223633 C-0.99359116 64.78984955 -2.09484833 64.78746277 -3.22947693 64.78500366 C-6.49509073 64.34888976 -7.87667996 63.85241619 -10.08203125 61.40405273 C-10.58996582 58.86157227 -10.58996582 58.86157227 -10.59960938 55.78686523 C-10.61221802 54.63557129 -10.62482666 53.48427734 -10.63781738 52.2980957 C-10.625672 50.43241943 -10.625672 50.43241943 -10.61328125 48.52905273 C-10.61710815 47.25304199 -10.62093506 45.97703125 -10.62487793 44.66235352 C-10.62760262 41.961771 -10.62221085 39.26263239 -10.60351562 36.56225586 C-10.58072453 33.10167289 -10.59384752 29.64233066 -10.61780548 26.18179321 C-10.63573824 22.8808352 -10.62318125 19.58002693 -10.61328125 16.27905273 C-10.62137817 15.03526855 -10.6294751 13.79148437 -10.63781738 12.51000977 C-10.62520874 11.35871582 -10.6126001 10.20742188 -10.59960938 9.02124023 C-10.596427 8.00658691 -10.59324463 6.99193359 -10.58996582 5.9465332 C-10.08203125 3.40405273 -10.08203125 3.40405273 -8.42980957 1.57823181 C-5.45881059 0.09236545 -3.32082638 0.01660599 0 0 Z " fill="#FAFAFA" transform="translate(1049.08203125,635.595947265625)"/>
</svg>
